<svg xmlns="http://www.w3.org/2000/svg" width="1920" height="1080" viewBox="0 0 1920 1080" role="img" aria-label="Hero background with inclusive para-sport energy">
  <defs>
    <linearGradient id="bgHome" x1="0" y1="0" x2="1" y2="1">
      <stop offset="0%" stop-color="#0b284d"/>
      <stop offset="38%" stop-color="#0b63b6"/>
      <stop offset="72%" stop-color="#2e9e57"/>
      <stop offset="100%" stop-color="#cf2f3b"/>
    </linearGradient>
    <radialGradient id="sunHome" cx="0.15" cy="0.2" r="0.5">
      <stop offset="0%" stop-color="#FFD700" stop-opacity="0.9"/>
      <stop offset="100%" stop-color="#FFD700" stop-opacity="0"/>
    </radialGradient>
    <linearGradient id="laneA" x1="0" y1="0" x2="1" y2="0">
      <stop offset="0%" stop-color="#ffffff" stop-opacity="0.05"/>
      <stop offset="100%" stop-color="#ffffff" stop-opacity="0.25"/>
    </linearGradient>
  </defs>

  <rect width="1920" height="1080" fill="url(#bgHome)"/>
  <rect width="1920" height="1080" fill="url(#sunHome)"/>

  <g opacity="0.3">
    <path d="M0 210h1920" stroke="url(#laneA)" stroke-width="2"/>
    <path d="M0 290h1920" stroke="url(#laneA)" stroke-width="2"/>
    <path d="M0 370h1920" stroke="url(#laneA)" stroke-width="2"/>
  </g>

  <path d="M0 820c290-70 620-90 1030-20 260 45 510 70 890 20v260H0z" fill="#0a1f3c" opacity="0.55"/>
  <path d="M0 900c280-65 560-68 920-12 360 56 660 36 1000-5v197H0z" fill="#091729" opacity="0.7"/>

  <g opacity="0.88" fill="#f6fbff">
    <circle cx="1260" cy="450" r="66"/>
    <rect x="1200" y="518" width="122" height="196" rx="54"/>
    <rect x="1110" y="560" width="58" height="140" rx="28" transform="rotate(12 1110 560)"/>
    <rect x="1338" y="560" width="58" height="140" rx="28" transform="rotate(-14 1338 560)"/>
    <circle cx="1448" cy="502" r="42"/>
    <rect x="1410" y="546" width="74" height="160" rx="36"/>
  </g>

  <g opacity="0.55">
    <circle cx="320" cy="620" r="118" fill="none" stroke="#FFD700" stroke-width="8"/>
    <circle cx="320" cy="620" r="66" fill="none" stroke="#ffffff" stroke-width="4"/>
    <path d="M260 620h120M320 560v120" stroke="#FFD700" stroke-width="6" stroke-linecap="round"/>
  </g>
</svg>
